<svg 
 xmlns="http://www.w3.org/2000/svg"
 xmlns:xlink="http://www.w3.org/1999/xlink"
 width="23px" height="19px">
<path fill-rule="evenodd"  fill="rgb(238, 46, 49)"
 d="M-0.008,19.001 L-0.008,5.723 L2.832,7.753 L11.499,13.950 L20.167,7.753 L23.008,5.723 L23.008,19.001 L-0.008,19.001 ZM11.896,13.115 C11.777,13.199 11.638,13.242 11.499,13.242 C11.361,13.242 11.222,13.200 11.104,13.115 L2.437,6.921 C2.258,6.793 2.152,6.585 2.152,6.364 L2.152,0.684 C2.152,0.306 2.455,-0.001 2.832,-0.001 L20.167,-0.001 C20.543,-0.001 20.848,0.306 20.850,0.684 L20.850,6.362 C20.850,6.584 20.743,6.791 20.563,6.920 L11.896,13.115 ZM19.485,1.366 L3.514,1.366 L3.514,6.011 L11.499,11.720 L19.485,6.011 L19.485,1.366 ZM5.469,6.128 C5.469,5.718 5.801,5.386 6.210,5.386 L16.359,5.386 C16.768,5.386 17.101,5.719 17.101,6.128 C17.101,6.540 16.768,6.871 16.359,6.871 L6.210,6.871 C5.801,6.871 5.469,6.539 5.469,6.128 ZM16.359,4.290 L6.210,4.290 C5.801,4.290 5.469,3.957 5.469,3.546 C5.469,3.135 5.801,2.804 6.210,2.804 L16.359,2.804 C16.768,2.804 17.101,3.135 17.101,3.546 C17.101,3.957 16.768,4.290 16.359,4.290 Z"/>
</svg>