<svg 
 xmlns="http://www.w3.org/2000/svg"
 xmlns:xlink="http://www.w3.org/1999/xlink"
 width="17px" height="20px">
<path fill-rule="evenodd"  fill="rgb(238, 46, 49)"
 d="M17.000,17.195 C17.000,17.195 16.902,17.967 16.057,18.676 C15.213,19.384 14.205,20.060 12.645,19.996 C11.085,19.931 6.991,16.228 4.813,13.717 C2.636,11.205 -0.126,5.763 0.004,4.057 C0.134,2.350 2.246,0.129 3.709,-0.000 C4.651,0.290 6.178,4.637 6.211,5.763 C6.113,6.246 5.431,6.086 4.813,6.568 C4.619,6.721 3.936,7.341 3.936,8.114 C3.936,8.887 5.691,11.205 6.341,12.042 C6.991,12.880 9.038,15.359 9.980,15.230 C10.923,15.101 11.053,14.249 11.605,13.749 C12.353,13.073 16.122,16.067 17.000,17.195 Z"/>
</svg>